<svg version="1.1" xmlns="http://www.w3.org/2000/svg" xmlns:xlink="http://www.w3.org/1999/xlink" width="512.000000pt" height="512.000000pt" viewBox="0,0,256,256"><g fill="#ffffff" fill-rule="nonzero" stroke="none" stroke-width="1" stroke-linecap="butt" stroke-linejoin="miter" stroke-miterlimit="10" stroke-dasharray="" stroke-dashoffset="0" font-family="none" font-weight="none" font-size="none" text-anchor="none" style="mix-blend-mode: normal"><g transform="translate(0.30279,-0.025) scale(0.5,0.5)"><g transform="translate(0,512) scale(0.1,-0.1)"><path d="M538,4003l-538,-538v-45v-45l523,-523c287,-288 535,-530 551,-538c15,-9 38,-13 50,-10c11,3 110,95 219,204c164,165 197,203 197,227c0,24 -28,57 -162,192l-163,164l1240,-3l1240,-3l75,-23c318,-97 562,-342 652,-657c20,-69 23,-102 22,-245c0,-150 -3,-173 -27,-253c-81,-263 -249,-461 -491,-576c-179,-86 -275,-100 -678,-101c-234,0 -249,-1 -268,-20c-25,-25 -26,-71 -1,-101c19,-24 20,-24 278,-27c388,-5 540,17 730,108c124,58 198,112 308,224c204,207 304,451 305,744c1,142 -9,211 -51,344c-106,335 -385,601 -744,706l-90,27l-1359,3c-1260,2 -1360,1 -1377,-14c-12,-11 -19,-31 -19,-53c0,-33 14,-50 200,-236l200,-200l-125,-125l-125,-125l-468,468l-467,467l467,467l468,468l120,-120c66,-66 120,-124 120,-130c0,-6 -88,-98 -195,-205c-174,-173 -195,-198 -195,-227c0,-20 8,-41 20,-53c20,-20 33,-20 718,-20c758,0 732,-2 746,55c7,29 -15,79 -39,89c-9,3 -280,6 -603,6h-586l162,163c135,136 162,168 162,192c0,25 -32,62 -203,232c-172,172 -207,203 -232,203c-26,0 -100,-70 -567,-537z"></path><path d="M2675,3726c-30,-30 -32,-65 -6,-97l19,-24l499,-6c550,-6 580,-9 782,-74c217,-70 397,-182 566,-350c208,-208 334,-441 396,-735c30,-139 32,-389 5,-530c-86,-447 -370,-826 -772,-1028c-101,-51 -229,-96 -352,-124c-96,-22 -110,-22 -1044,-25l-948,-4v175v175l446,3l446,3l19,24c25,30 24,76 -1,101c-19,19 -33,20 -520,20c-487,0 -501,-1 -520,-20c-19,-19 -20,-33 -20,-305c0,-281 0,-284 22,-305l23,-21l1010,4c984,3 1012,4 1107,24c498,110 894,415 1113,858c237,480 214,1055 -60,1511c-206,341 -545,603 -925,712c-180,52 -213,55 -752,59l-507,4z"></path></g></g></g></svg>