<?xml version="1.0" standalone="no"?>
<!DOCTYPE svg PUBLIC "-//W3C//DTD SVG 20010904//EN"
 "http://www.w3.org/TR/2001/REC-SVG-20010904/DTD/svg10.dtd">
<svg version="1.0" xmlns="http://www.w3.org/2000/svg"
 width="512.000000pt" height="512.000000pt" viewBox="0 0 512.000000 512.000000"
 preserveAspectRatio="xMidYMid meet">

<g transform="translate(0.000000,512.000000) scale(0.100000,-0.100000)"
fill="#000000" stroke="none">
<path d="M1352 4270 c-88 -23 -153 -57 -227 -119 -36 -29 -232 -267 -541 -656
-538 -675 -554 -698 -576 -852 -9 -65 -9 -101 0 -165 22 -155 33 -170 585
-863 480 -601 505 -631 579 -682 43 -28 108 -62 145 -75 l68 -23 1610 -3
c1580 -2 1611 -2 1688 18 207 52 364 209 417 415 25 99 29 349 6 394 -25 47
-83 63 -135 36 -42 -21 -50 -54 -53 -225 -3 -145 -6 -159 -32 -216 -35 -77
-112 -154 -191 -191 l-60 -28 -1615 0 -1615 0 -65 32 c-36 18 -84 51 -107 75
-23 24 -253 309 -512 633 -350 438 -477 604 -493 645 -31 77 -31 203 0 280 16
41 143 207 493 645 259 325 489 609 512 633 23 24 71 57 107 75 l65 32 1615 0
1615 0 60 -28 c79 -37 156 -114 192 -191 l28 -61 5 -665 c3 -366 9 -673 14
-683 10 -22 57 -47 86 -47 31 0 76 29 89 57 8 16 11 226 11 667 0 610 -1 647
-20 721 -53 206 -209 362 -415 415 -77 20 -111 20 -1669 19 -1534 0 -1594 -1
-1664 -19z"/>
<path d="M2840 3438 c-45 -13 -335 -296 -361 -353 -22 -47 -24 -92 -7 -149 10
-32 46 -76 177 -208 l164 -168 -164 -167 c-172 -175 -189 -201 -189 -284 1
-64 34 -110 191 -265 159 -157 186 -174 264 -174 60 1 109 37 270 199 l160
161 160 -160 c199 -197 240 -220 349 -188 32 9 73 43 189 157 185 182 213 232
187 332 -10 37 -37 70 -183 217 l-171 172 171 173 c146 146 173 179 183 216
26 100 -2 150 -187 332 -116 114 -157 148 -189 157 -109 32 -150 9 -349 -188
l-160 -160 -160 161 c-96 97 -176 169 -200 180 -44 20 -91 23 -145 7z m483
-583 c55 -14 79 3 275 198 l192 192 122 -123 123 -122 -198 -198 c-262 -264
-262 -220 0 -484 l198 -198 -123 -122 -122 -123 -192 192 c-106 105 -204 194
-216 198 -58 17 -81 2 -282 -200 l-195 -195 -122 122 -123 123 194 195 c122
123 197 205 201 222 14 56 -3 80 -201 278 l-194 195 122 123 123 122 195 -194
c123 -122 205 -197 223 -201z"/>
<path d="M4971 2146 c-87 -48 -50 -186 49 -186 51 0 100 49 100 99 0 75 -83
124 -149 87z"/>
</g>
</svg>
