<?xml version="1.0" standalone="no"?>
<!DOCTYPE svg PUBLIC "-//W3C//DTD SVG 20010904//EN"
 "http://www.w3.org/TR/2001/REC-SVG-20010904/DTD/svg10.dtd">
<svg version="1.0" xmlns="http://www.w3.org/2000/svg"
 width="512.000000pt" height="512.000000pt" viewBox="0 0 512.000000 512.000000"
 preserveAspectRatio="xMidYMid meet">

<g transform="translate(0.000000,512.000000) scale(0.100000,-0.100000)"
fill="#000000" stroke="none">
<path d="M538 4003 l-538 -538 0 -45 0 -45 523 -523 c287 -288 535 -530 551
-538 15 -9 38 -13 50 -10 11 3 110 95 219 204 164 165 197 203 197 227 0 24
-28 57 -162 192 l-163 164 1240 -3 1240 -3 75 -23 c318 -97 562 -342 652 -657
20 -69 23 -102 22 -245 0 -150 -3 -173 -27 -253 -81 -263 -249 -461 -491 -576
-179 -86 -275 -100 -678 -101 -234 0 -249 -1 -268 -20 -25 -25 -26 -71 -1
-101 19 -24 20 -24 278 -27 388 -5 540 17 730 108 124 58 198 112 308 224 204
207 304 451 305 744 1 142 -9 211 -51 344 -106 335 -385 601 -744 706 l-90 27
-1359 3 c-1260 2 -1360 1 -1377 -14 -12 -11 -19 -31 -19 -53 0 -33 14 -50 200
-236 l200 -200 -125 -125 -125 -125 -468 468 -467 467 467 467 468 468 120
-120 c66 -66 120 -124 120 -130 0 -6 -88 -98 -195 -205 -174 -173 -195 -198
-195 -227 0 -20 8 -41 20 -53 20 -20 33 -20 718 -20 758 0 732 -2 746 55 7 29
-15 79 -39 89 -9 3 -280 6 -603 6 l-586 0 162 163 c135 136 162 168 162 192 0
25 -32 62 -203 232 -172 172 -207 203 -232 203 -26 0 -100 -70 -567 -537z"/>
<path d="M2675 3726 c-30 -30 -32 -65 -6 -97 l19 -24 499 -6 c550 -6 580 -9
782 -74 217 -70 397 -182 566 -350 208 -208 334 -441 396 -735 30 -139 32
-389 5 -530 -86 -447 -370 -826 -772 -1028 -101 -51 -229 -96 -352 -124 -96
-22 -110 -22 -1044 -25 l-948 -4 0 175 0 175 446 3 446 3 19 24 c25 30 24 76
-1 101 -19 19 -33 20 -520 20 -487 0 -501 -1 -520 -20 -19 -19 -20 -33 -20
-305 0 -281 0 -284 22 -305 l23 -21 1010 4 c984 3 1012 4 1107 24 498 110 894
415 1113 858 237 480 214 1055 -60 1511 -206 341 -545 603 -925 712 -180 52
-213 55 -752 59 l-507 4 -26 -25z"/>
</g>
</svg>
