<svg version="1.1" xmlns="http://www.w3.org/2000/svg" xmlns:xlink="http://www.w3.org/1999/xlink" width="512.000000pt" height="512.000000pt" viewBox="0,0,256,256"><g fill="#ffffff" fill-rule="nonzero" stroke="none" stroke-width="1" stroke-linecap="butt" stroke-linejoin="miter" stroke-miterlimit="10" stroke-dasharray="" stroke-dashoffset="0" font-family="none" font-weight="none" font-size="none" text-anchor="none" style="mix-blend-mode: normal"><g transform="translate(-0.06111,0.01216) scale(0.5,0.5)"><g transform="translate(0,512) scale(0.1,-0.1)"><path d="M1352,4270c-88,-23 -153,-57 -227,-119c-36,-29 -232,-267 -541,-656c-538,-675 -554,-698 -576,-852c-9,-65 -9,-101 0,-165c22,-155 33,-170 585,-863c480,-601 505,-631 579,-682c43,-28 108,-62 145,-75l68,-23l1610,-3c1580,-2 1611,-2 1688,18c207,52 364,209 417,415c25,99 29,349 6,394c-25,47 -83,63 -135,36c-42,-21 -50,-54 -53,-225c-3,-145 -6,-159 -32,-216c-35,-77 -112,-154 -191,-191l-60,-28h-1615h-1615l-65,32c-36,18 -84,51 -107,75c-23,24 -253,309 -512,633c-350,438 -477,604 -493,645c-31,77 -31,203 0,280c16,41 143,207 493,645c259,325 489,609 512,633c23,24 71,57 107,75l65,32h1615h1615l60,-28c79,-37 156,-114 192,-191l28,-61l5,-665c3,-366 9,-673 14,-683c10,-22 57,-47 86,-47c31,0 76,29 89,57c8,16 11,226 11,667c0,610 -1,647 -20,721c-53,206 -209,362 -415,415c-77,20 -111,20 -1669,19c-1534,0 -1594,-1 -1664,-19z"></path><path d="M2840,3438c-45,-13 -335,-296 -361,-353c-22,-47 -24,-92 -7,-149c10,-32 46,-76 177,-208l164,-168l-164,-167c-172,-175 -189,-201 -189,-284c1,-64 34,-110 191,-265c159,-157 186,-174 264,-174c60,1 109,37 270,199l160,161l160,-160c199,-197 240,-220 349,-188c32,9 73,43 189,157c185,182 213,232 187,332c-10,37 -37,70 -183,217l-171,172l171,173c146,146 173,179 183,216c26,100 -2,150 -187,332c-116,114 -157,148 -189,157c-109,32 -150,9 -349,-188l-160,-160l-160,161c-96,97 -176,169 -200,180c-44,20 -91,23 -145,7zM3323,2855c55,-14 79,3 275,198l192,192l122,-123l123,-122l-198,-198c-262,-264 -262,-220 0,-484l198,-198l-123,-122l-122,-123l-192,192c-106,105 -204,194 -216,198c-58,17 -81,2 -282,-200l-195,-195l-122,122l-123,123l194,195c122,123 197,205 201,222c14,56 -3,80 -201,278l-194,195l122,123l123,122l195,-194c123,-122 205,-197 223,-201z"></path><path d="M4971,2146c-87,-48 -50,-186 49,-186c51,0 100,49 100,99c0,75 -83,124 -149,87z"></path></g></g></g></svg>