<?xml version="1.0" standalone="no"?>
<!DOCTYPE svg PUBLIC "-//W3C//DTD SVG 20010904//EN"
 "http://www.w3.org/TR/2001/REC-SVG-20010904/DTD/svg10.dtd">
<svg version="1.0" xmlns="http://www.w3.org/2000/svg"
 width="512.000000pt" height="512.000000pt" viewBox="0 0 512.000000 512.000000"
 preserveAspectRatio="xMidYMid meet">

<g transform="translate(0.000000,512.000000) scale(0.100000,-0.100000)"
fill="#000000" stroke="none">
<path d="M2292 4244 c-64 -32 -109 -87 -132 -162 -9 -31 -136 -571 -281 -1199
-145 -628 -267 -1139 -271 -1137 -6 4 -468 657 -710 1006 -149 213 -159 218
-472 218 -201 0 -225 -2 -266 -21 -172 -78 -212 -288 -80 -420 64 -64 117 -79
274 -79 l121 -1 250 -356 c138 -196 373 -532 524 -747 150 -215 285 -403 299
-419 71 -76 199 -99 298 -53 55 26 113 86 131 138 7 18 77 314 156 658 80 344
221 952 313 1352 l168 728 1151 2 1150 3 57 28 c70 35 114 85 135 156 27 95 2
190 -69 260 -73 72 50 66 -1393 69 l-1300 2 -53 -26z"/>
<path d="M3096 2966 c-54 -20 -85 -45 -121 -95 -27 -39 -30 -50 -30 -119 0
-61 5 -87 23 -122 13 -25 122 -160 243 -299 121 -140 222 -258 224 -262 3 -4
-103 -135 -235 -291 -132 -155 -250 -303 -262 -328 -49 -98 -20 -219 67 -281
50 -36 139 -54 193 -39 92 24 125 58 372 384 125 165 167 214 175 203 397
-522 410 -537 483 -569 58 -26 151 -27 210 -3 106 43 159 177 117 295 -20 58
-38 80 -290 369 -121 139 -220 257 -220 262 0 5 45 61 100 125 55 65 158 185
229 268 71 83 137 169 147 191 22 48 25 142 5 189 -34 82 -149 145 -242 132
-100 -13 -141 -52 -356 -333 -94 -123 -175 -226 -179 -229 -5 -2 -89 103 -188
235 -174 231 -209 270 -278 305 -47 24 -140 29 -187 12z"/>
</g>
</svg>
