<svg version="1.1" xmlns="http://www.w3.org/2000/svg" xmlns:xlink="http://www.w3.org/1999/xlink" width="512.000000pt" height="512.000000pt" viewBox="0,0,256,256"><g fill="#ffffff" fill-rule="nonzero" stroke="none" stroke-width="1" stroke-linecap="butt" stroke-linejoin="miter" stroke-miterlimit="10" stroke-dasharray="" stroke-dashoffset="0" font-family="none" font-weight="none" font-size="none" text-anchor="none" style="mix-blend-mode: normal"><g transform="translate(0.01953,0.00925) scale(0.5,0.5)"><g transform="translate(0,512) scale(0.1,-0.1)"><path d="M2292,4244c-64,-32 -109,-87 -132,-162c-9,-31 -136,-571 -281,-1199c-145,-628 -267,-1139 -271,-1137c-6,4 -468,657 -710,1006c-149,213 -159,218 -472,218c-201,0 -225,-2 -266,-21c-172,-78 -212,-288 -80,-420c64,-64 117,-79 274,-79l121,-1l250,-356c138,-196 373,-532 524,-747c150,-215 285,-403 299,-419c71,-76 199,-99 298,-53c55,26 113,86 131,138c7,18 77,314 156,658c80,344 221,952 313,1352l168,728l1151,2l1150,3l57,28c70,35 114,85 135,156c27,95 2,190 -69,260c-73,72 50,66 -1393,69l-1300,2z"></path><path d="M3096,2966c-54,-20 -85,-45 -121,-95c-27,-39 -30,-50 -30,-119c0,-61 5,-87 23,-122c13,-25 122,-160 243,-299c121,-140 222,-258 224,-262c3,-4 -103,-135 -235,-291c-132,-155 -250,-303 -262,-328c-49,-98 -20,-219 67,-281c50,-36 139,-54 193,-39c92,24 125,58 372,384c125,165 167,214 175,203c397,-522 410,-537 483,-569c58,-26 151,-27 210,-3c106,43 159,177 117,295c-20,58 -38,80 -290,369c-121,139 -220,257 -220,262c0,5 45,61 100,125c55,65 158,185 229,268c71,83 137,169 147,191c22,48 25,142 5,189c-34,82 -149,145 -242,132c-100,-13 -141,-52 -356,-333c-94,-123 -175,-226 -179,-229c-5,-2 -89,103 -188,235c-174,231 -209,270 -278,305c-47,24 -140,29 -187,12z"></path></g></g></g></svg>